<svg xmlns="http://www.w3.org/2000/svg" viewBox="0 0 320 320" role="img" aria-label="Captain Caveman">
  <defs>
    <radialGradient id="fur" cx="45%" cy="35%" r="70%">
      <stop offset="0" stop-color="#8a5a32"/>
      <stop offset="1" stop-color="#4a2c18"/>
    </radialGradient>
    <linearGradient id="skin" x1="0" y1="0" x2="1" y2="1">
      <stop offset="0" stop-color="#f0c69b"/>
      <stop offset="1" stop-color="#d99a67"/>
    </linearGradient>
    <linearGradient id="cloth" x1="0" y1="0" x2="0" y2="1">
      <stop offset="0" stop-color="#8fb2ff"/>
      <stop offset="1" stop-color="#486fc9"/>
    </linearGradient>
  </defs>

  <ellipse cx="160" cy="168" rx="126" ry="120" fill="url(#fur)"/>

  <ellipse cx="160" cy="158" rx="62" ry="72" fill="url(#skin)"/>
  <ellipse cx="137" cy="152" rx="13" ry="16" fill="#1a130f"/>
  <ellipse cx="183" cy="152" rx="13" ry="16" fill="#1a130f"/>
  <circle cx="141" cy="147" r="3.4" fill="#fff"/>
  <circle cx="187" cy="147" r="3.4" fill="#fff"/>

  <ellipse cx="151" cy="176" rx="5" ry="3.8" fill="#7a4d30"/>
  <ellipse cx="169" cy="176" rx="5" ry="3.8" fill="#7a4d30"/>

  <path d="M126 202c14 13 54 13 68 0" fill="none" stroke="#2f1d12" stroke-width="9" stroke-linecap="round"/>
  <path d="M131 201c12 9 45 9 58 0" fill="none" stroke="#f8deb7" stroke-width="2.7" stroke-linecap="round" opacity="0.75"/>

  <path d="M104 86c18-22 38-33 56-33 18 0 40 11 58 33" fill="none" stroke="#4a2c18" stroke-width="17" stroke-linecap="round"/>
  <path d="M94 112c-10 10-16 20-16 31 0 8 3 15 8 21" fill="none" stroke="#4a2c18" stroke-width="15" stroke-linecap="round"/>
  <path d="M226 112c10 10 16 20 16 31 0 8-3 15-8 21" fill="none" stroke="#4a2c18" stroke-width="15" stroke-linecap="round"/>

  <rect x="118" y="215" width="84" height="30" rx="14" fill="url(#cloth)"/>
  <path d="M90 208c25 13 114 13 140 0" fill="none" stroke="#3b2416" stroke-width="11" stroke-linecap="round"/>

  <g transform="translate(232 178) rotate(-16)">
    <rect x="0" y="0" width="12" height="70" rx="6" fill="#8a5a32"/>
    <ellipse cx="6" cy="-8" rx="23" ry="14" fill="#8f8d8a"/>
    <ellipse cx="6" cy="-8" rx="15" ry="8" fill="#73706c"/>
  </g>

  <path d="M66 168c0-38 20-73 56-92" fill="none" stroke="#d7ae84" stroke-width="10" stroke-linecap="round" opacity="0.2"/>
</svg>
