<svg xmlns="http://www.w3.org/2000/svg" viewBox="0 0 256 256" role="img" aria-label="Green dinosaur monster">
  <defs>
    <radialGradient id="bg" cx="36%" cy="26%" r="72%">
      <stop offset="0" stop-color="#b7ff8e"/>
      <stop offset="1" stop-color="#3e7d2d"/>
    </radialGradient>
    <linearGradient id="skin" x1="0" y1="0" x2="1" y2="1">
      <stop offset="0" stop-color="#96e85f"/>
      <stop offset="1" stop-color="#3f9c2f"/>
    </linearGradient>
    <linearGradient id="belly" x1="0" y1="0" x2="0" y2="1">
      <stop offset="0" stop-color="#dff7b6"/>
      <stop offset="1" stop-color="#9bcc68"/>
    </linearGradient>
  </defs>

  <ellipse cx="128" cy="128" rx="108" ry="108" fill="url(#bg)"/>

  <path d="M48 152c0-57 33-94 80-94 54 0 83 39 83 90 0 58-44 94-90 94-43 0-73-36-73-90z" fill="url(#skin)"/>
  <ellipse cx="130" cy="184" rx="56" ry="40" fill="url(#belly)" opacity="0.92"/>

  <path d="M72 98l20-28 16 24M124 82l16-25 18 27M172 94l14-20 13 22" fill="none" stroke="#2f6f28" stroke-width="9" stroke-linecap="round"/>

  <ellipse cx="98" cy="124" rx="17" ry="19" fill="#162419"/>
  <ellipse cx="160" cy="124" rx="17" ry="19" fill="#162419"/>
  <circle cx="102" cy="119" r="4" fill="#fff"/>
  <circle cx="164" cy="119" r="4" fill="#fff"/>

  <ellipse cx="118" cy="149" rx="5" ry="3.5" fill="#355a2f"/>
  <ellipse cx="140" cy="149" rx="5" ry="3.5" fill="#355a2f"/>

  <path d="M92 176c12 12 60 12 74 0" fill="none" stroke="#1f3d1d" stroke-width="10" stroke-linecap="round"/>
  <path d="M96 176c9 10 54 10 66 0" fill="none" stroke="#a3d46f" stroke-width="3" stroke-linecap="round" opacity="0.75"/>

  <path d="M54 165c0-41 24-72 56-85" fill="none" stroke="#e7ffd0" stroke-width="10" stroke-linecap="round" opacity="0.24"/>
</svg>
