<svg xmlns="http://www.w3.org/2000/svg" viewBox="0 0 256 256" role="img" aria-label="Green dinosaur head">
  <defs>
    <linearGradient id="skin" x1="0" y1="0" x2="1" y2="1">
      <stop offset="0" stop-color="#8fe06a"/>
      <stop offset="1" stop-color="#2f8f33"/>
    </linearGradient>
    <linearGradient id="jaw" x1="0" y1="0" x2="0" y2="1">
      <stop offset="0" stop-color="#e6f9c8"/>
      <stop offset="1" stop-color="#b7dc83"/>
    </linearGradient>
  </defs>

  <path d="M38 146c0-47 29-86 78-95 47-9 86 13 107 49 14 25 10 56-8 79-15 19-39 31-65 32-49 2-112-19-112-65z" fill="url(#skin)"/>
  <path d="M49 162c0-18 18-30 42-32l91-6c9 0 16 6 16 14 0 38-46 58-99 58-28 0-50-13-50-34z" fill="url(#jaw)"/>

  <path d="M63 110l18-24 14 22M102 92l16-24 16 24M142 85l14-21 13 21" fill="none" stroke="#2a6d2f" stroke-width="8" stroke-linecap="round"/>

  <ellipse cx="109" cy="118" rx="14" ry="16" fill="#162419"/>
  <circle cx="113" cy="113" r="3.5" fill="#fff"/>
  <ellipse cx="148" cy="116" rx="12" ry="14" fill="#162419" opacity="0.86"/>

  <ellipse cx="170" cy="140" rx="4.5" ry="3.5" fill="#325b31"/>
  <ellipse cx="183" cy="144" rx="4" ry="3" fill="#325b31"/>

  <path d="M78 173c20 14 70 14 96-2" fill="none" stroke="#244724" stroke-width="9" stroke-linecap="round"/>
  <path d="M82 172c18 11 63 11 86-2" fill="none" stroke="#a6d777" stroke-width="3" stroke-linecap="round" opacity="0.75"/>

  <path d="M55 147c0-37 20-67 55-84" fill="none" stroke="#f0ffd9" stroke-width="9" stroke-linecap="round" opacity="0.22"/>
</svg>
