<svg xmlns="http://www.w3.org/2000/svg" viewBox="0 0 256 256">
  <defs>
    <radialGradient id="trBg" cx="50%" cy="40%" r="65%">
      <stop offset="0" stop-color="#bcecf1"/>
      <stop offset="1" stop-color="#2d6670"/>
    </radialGradient>
    <linearGradient id="trSkin" x1="0" y1="0" x2="1" y2="1">
      <stop offset="0" stop-color="#82d2da"/>
      <stop offset="1" stop-color="#2d6c77"/>
    </linearGradient>
  </defs>
  <ellipse cx="128" cy="130" rx="102" ry="96" fill="url(#trBg)"/>
  <path d="M35 174c0-56 36-100 93-106 62-7 119 35 122 95 3 63-47 103-116 103-60 0-99-34-99-92z" fill="url(#trSkin)"/>
  <path d="M67 98c15-23 37-35 65-35 29 0 53 12 67 34" stroke="#1d4c56" stroke-width="9" fill="none" stroke-linecap="round"/>
  <ellipse cx="100" cy="123" rx="12" ry="14" fill="#13262b"/>
  <ellipse cx="171" cy="123" rx="12" ry="14" fill="#13262b"/>
  <circle cx="103" cy="119" r="3" fill="#fff"/>
  <circle cx="174" cy="119" r="3" fill="#fff"/>
  <path d="M95 186h80" stroke="#123940" stroke-width="10" stroke-linecap="round"/>
  <path d="M114 186l-8 15M147 186l8 15" stroke="#f8fafc" stroke-width="6" stroke-linecap="round"/>
</svg>
