<svg xmlns="http://www.w3.org/2000/svg" viewBox="0 0 256 256">
  <defs>
    <radialGradient id="d_bg" cx="38%" cy="30%" r="74%">
      <stop offset="0" stop-color="#99ffd0"/>
      <stop offset="1" stop-color="#14513a"/>
    </radialGradient>
    <linearGradient id="d_skin" x1="0" y1="0" x2="1" y2="1">
      <stop offset="0" stop-color="#7fe8ba"/>
      <stop offset="1" stop-color="#1b6b4a"/>
    </linearGradient>
    <linearGradient id="d_metal" x1="0" y1="0" x2="1" y2="1">
      <stop offset="0" stop-color="#9aa7b8"/>
      <stop offset="1" stop-color="#1f2937"/>
    </linearGradient>
  </defs>
  <ellipse cx="128" cy="132" rx="100" ry="100" fill="url(#d_bg)"/>
  <path d="M40 170c0-56 41-99 95-99 56 0 100 43 100 99 0 58-46 96-104 96-52 0-91-37-91-96z" fill="url(#d_skin)"/>
  <path d="M61 168c6-31 31-54 74-56 41-1 71 22 79 56v31H61z" fill="url(#d_metal)" opacity="0.9"/>
  <path d="M91 150h72" stroke="#c7d2fe" stroke-width="6" stroke-linecap="round"/>
  <path d="M83 106l18-34 17 29M151 78l13-25 14 24" stroke="#0f3326" stroke-width="8" stroke-linecap="round"/>
  <path d="M104 92l8-10M122 86l8-11M140 84l9-11" stroke="#c2ffe1" stroke-width="5" stroke-linecap="round" opacity="0.45"/>
  <ellipse cx="95" cy="124" rx="13" ry="16" fill="#0b1220"/>
  <ellipse cx="161" cy="122" rx="13" ry="16" fill="#0b1220"/>
  <circle cx="99" cy="120" r="3" fill="#fff"/>
  <circle cx="165" cy="118" r="3" fill="#fff"/>
  <path d="M96 189c20 15 48 15 68 0" stroke="#102e24" stroke-width="9" fill="none" stroke-linecap="round"/>
  <path d="M42 171c0-56 36-89 83-98" stroke="#d8ffef" stroke-width="9" fill="none" opacity="0.22"/>
</svg>
