<svg xmlns="http://www.w3.org/2000/svg" viewBox="0 0 256 256">
  <defs>
    <radialGradient id="dinoBg" cx="50%" cy="40%" r="65%">
      <stop offset="0" stop-color="#b6f3d8"/>
      <stop offset="1" stop-color="#2f7a5b"/>
    </radialGradient>
    <linearGradient id="dinoSkin" x1="0" y1="0" x2="1" y2="1">
      <stop offset="0" stop-color="#79d8ae"/>
      <stop offset="1" stop-color="#2d7c5c"/>
    </linearGradient>
  </defs>
  <ellipse cx="128" cy="130" rx="102" ry="96" fill="url(#dinoBg)"/>
  <path d="M43 173c0-51 33-92 85-102 58-11 111 25 120 79 10 60-35 108-102 108-58 0-103-34-103-85z" fill="url(#dinoSkin)"/>
  <path d="M77 118c13-23 33-36 62-39 29-3 54 7 72 30" stroke="#1f4f3b" stroke-width="8" fill="none" stroke-linecap="round"/>
  <ellipse cx="105" cy="121" rx="11" ry="13" fill="#18241f"/>
  <ellipse cx="165" cy="119" rx="10" ry="12" fill="#18241f"/>
  <circle cx="108" cy="117" r="3" fill="#fff"/>
  <circle cx="168" cy="115" r="3" fill="#fff"/>
  <path d="M96 176c20 17 50 17 70 0" stroke="#183d30" stroke-width="8" fill="none" stroke-linecap="round"/>
  <path d="M80 88l16-30 16 26M148 67l10-20 13 20" stroke="#245742" stroke-width="7" fill="none" stroke-linecap="round"/>
</svg>
