<svg xmlns="http://www.w3.org/2000/svg" viewBox="0 0 256 256">
  <defs>
    <radialGradient id="dr_bg" cx="36%" cy="30%" r="76%">
      <stop offset="0" stop-color="#ffd7ba"/>
      <stop offset="1" stop-color="#5a230e"/>
    </radialGradient>
    <linearGradient id="dr_skin" x1="0" y1="0" x2="1" y2="1">
      <stop offset="0" stop-color="#ffb37f"/>
      <stop offset="1" stop-color="#8c3513"/>
    </linearGradient>
    <linearGradient id="dr_spike" x1="0" y1="0" x2="1" y2="1">
      <stop offset="0" stop-color="#fde68a"/>
      <stop offset="1" stop-color="#f97316"/>
    </linearGradient>
  </defs>
  <ellipse cx="128" cy="132" rx="100" ry="100" fill="url(#dr_bg)"/>
  <path d="M34 170c0-58 42-99 97-99 58 0 101 41 101 99 0 58-47 96-104 96-54 0-94-37-94-96z" fill="url(#dr_skin)"/>
  <path d="M59 164c9-33 35-55 75-55 42 0 67 22 77 55v33H59z" fill="#4b190a" opacity="0.88"/>
  <path d="M72 96l17-33M184 96l-17-33M128 79l0-30" stroke="#5d230c" stroke-width="8" stroke-linecap="round"/>
  <path d="M89 150l18-18 20 0 18-18 23 0" stroke="url(#dr_spike)" stroke-width="8" fill="none" stroke-linecap="round"/>
  <path d="M92 110l16-8 22 0 16 8" stroke="#ffe8c7" stroke-width="5" fill="none" stroke-linecap="round" opacity="0.5"/>
  <ellipse cx="94" cy="124" rx="13" ry="16" fill="#0b1220"/>
  <ellipse cx="172" cy="124" rx="13" ry="16" fill="#0b1220"/>
  <circle cx="98" cy="120" r="3" fill="#fff"/>
  <circle cx="176" cy="120" r="3" fill="#fff"/>
  <path d="M94 190c22 16 56 16 78 0" stroke="#3f1708" stroke-width="9" fill="none" stroke-linecap="round"/>
  <path d="M118 192l-8 12M151 192l8 12" stroke="#fff7ed" stroke-width="6" stroke-linecap="round"/>
</svg>
