<svg xmlns="http://www.w3.org/2000/svg" viewBox="0 0 256 256">
  <defs>
    <linearGradient id="skin" x1="0" y1="0" x2="1" y2="1">
      <stop offset="0" stop-color="#ffb37a"/>
      <stop offset="1" stop-color="#8e3412"/>
    </linearGradient>
    <linearGradient id="plate" x1="0" y1="0" x2="1" y2="1">
      <stop offset="0" stop-color="#fde68a"/>
      <stop offset="1" stop-color="#f97316"/>
    </linearGradient>
  </defs>
  <ellipse cx="128" cy="134" rx="96" ry="98" fill="#3f1e13"/>
  <path d="M36 170c0-57 40-98 96-98s96 41 96 98-44 94-96 94-96-37-96-94z" fill="url(#skin)"/>
  <path d="M62 158c9-28 34-48 72-48s63 20 72 48v30H62z" fill="#4a190b" opacity="0.85"/>
  <path d="M74 96l16-31M183 96l-16-31M128 78l0-28" stroke="#5b210d" stroke-width="8" stroke-linecap="round"/>
  <path d="M90 150l18-17 20 0 18-17 22 0" stroke="url(#plate)" stroke-width="8" fill="none" stroke-linecap="round"/>
  <ellipse cx="97" cy="124" rx="13" ry="15" fill="#0f172a"/>
  <ellipse cx="171" cy="124" rx="13" ry="15" fill="#0f172a"/>
  <circle cx="100" cy="120" r="3" fill="#fff"/>
  <circle cx="174" cy="120" r="3" fill="#fff"/>
  <path d="M95 188c22 16 53 16 75 0" stroke="#3f1708" stroke-width="9" fill="none" stroke-linecap="round"/>
  <path d="M118 190l-8 13M150 190l8 13" stroke="#fff7ed" stroke-width="6" stroke-linecap="round"/>
</svg>
