<svg xmlns="http://www.w3.org/2000/svg" viewBox="0 0 256 256">
  <defs>
    <radialGradient id="gh_mist" cx="50%" cy="38%" r="72%">
      <stop offset="0" stop-color="#ffffff" stop-opacity="0.97"/>
      <stop offset="1" stop-color="#64748b" stop-opacity="0.4"/>
    </radialGradient>
    <linearGradient id="gh_body" x1="0" y1="0" x2="0" y2="1">
      <stop offset="0" stop-color="#ffffff"/>
      <stop offset="1" stop-color="#cfd8e3"/>
    </linearGradient>
  </defs>
  <ellipse cx="128" cy="132" rx="100" ry="100" fill="url(#gh_mist)"/>
  <path d="M46 186c-10-31-6-70 12-96 16-23 40-36 70-36s54 13 70 36c18 26 22 65 12 96l-24-13-16 18-16-18-18 18-18-18-17 18-16-18z" fill="url(#gh_body)"/>
  <path d="M64 113c11-19 34-30 64-30s53 11 64 30" stroke="#94a3b8" stroke-width="8" fill="none" stroke-linecap="round" opacity="0.7"/>
  <path d="M79 145h98" stroke="#f8fafc" stroke-width="6" stroke-linecap="round" opacity="0.4"/>
  <ellipse cx="100" cy="126" rx="13" ry="16" fill="#1e293b"/>
  <ellipse cx="156" cy="126" rx="13" ry="16" fill="#1e293b"/>
  <circle cx="104" cy="122" r="3" fill="#fff"/>
  <circle cx="160" cy="122" r="3" fill="#fff"/>
  <path d="M95 190c18 12 48 12 66 0" stroke="#334155" stroke-width="8" fill="none" stroke-linecap="round"/>
</svg>
