<svg xmlns="http://www.w3.org/2000/svg" viewBox="0 0 256 256">
  <defs>
    <radialGradient id="ghBg" cx="50%" cy="40%" r="65%">
      <stop offset="0" stop-color="#ffffff"/>
      <stop offset="1" stop-color="#94a3b8"/>
    </radialGradient>
    <linearGradient id="ghBody" x1="0" y1="0" x2="0" y2="1">
      <stop offset="0" stop-color="#ffffff"/>
      <stop offset="1" stop-color="#d2dce7"/>
    </linearGradient>
  </defs>
  <ellipse cx="128" cy="130" rx="102" ry="96" fill="url(#ghBg)"/>
  <path d="M48 182c-9-29-5-65 11-90 17-26 40-40 68-40s51 14 68 40c16 25 20 61 11 90l-25-14-16 19-16-19-18 19-18-19-17 19-16-19z" fill="url(#ghBody)"/>
  <ellipse cx="103" cy="123" rx="12" ry="15" fill="#233748"/>
  <ellipse cx="155" cy="123" rx="12" ry="15" fill="#233748"/>
  <circle cx="106" cy="119" r="3" fill="#fff"/>
  <circle cx="158" cy="119" r="3" fill="#fff"/>
  <path d="M97 182c17 12 44 12 61 0" stroke="#30475a" stroke-width="8" fill="none" stroke-linecap="round"/>
</svg>
