<svg xmlns="http://www.w3.org/2000/svg" viewBox="0 0 256 256">
  <defs>
    <radialGradient id="g_bg" cx="36%" cy="28%" r="76%">
      <stop offset="0" stop-color="#deff9d"/>
      <stop offset="1" stop-color="#39571a"/>
    </radialGradient>
    <linearGradient id="g_skin" x1="0" y1="0" x2="1" y2="1">
      <stop offset="0" stop-color="#b7e26b"/>
      <stop offset="1" stop-color="#486b20"/>
    </linearGradient>
    <linearGradient id="g_hood" x1="0" y1="0" x2="1" y2="1">
      <stop offset="0" stop-color="#334155"/>
      <stop offset="1" stop-color="#0b1220"/>
    </linearGradient>
  </defs>
  <ellipse cx="128" cy="132" rx="100" ry="100" fill="url(#g_bg)"/>
  <path d="M34 168c0-58 42-99 97-99 58 0 101 41 101 99 0 60-48 98-107 98-53 0-91-37-91-98z" fill="url(#g_skin)"/>
  <path d="M56 163c10-38 33-62 75-63 43-1 67 24 77 63v37H56z" fill="url(#g_hood)" opacity="0.9"/>
  <path d="M40 130L12 109l32-15M214 130l30-20-32-16" stroke="#2d4617" stroke-width="10" fill="none" stroke-linecap="round"/>
  <path d="M91 106l22-10 26 0 22 10" stroke="#e7ffc2" stroke-width="6" fill="none" stroke-linecap="round" opacity="0.45"/>
  <ellipse cx="94" cy="124" rx="13" ry="16" fill="#0b1220"/>
  <ellipse cx="163" cy="124" rx="13" ry="16" fill="#0b1220"/>
  <circle cx="98" cy="120" r="3" fill="#fff"/>
  <circle cx="167" cy="120" r="3" fill="#fff"/>
  <path d="M92 189c20-18 53-18 73 0" stroke="#1e3410" stroke-width="9" fill="none" stroke-linecap="round"/>
  <path d="M114 190l-7 14M147 191l7 13" stroke="#fff" stroke-width="5" stroke-linecap="round"/>
</svg>
