<svg xmlns="http://www.w3.org/2000/svg" viewBox="0 0 256 256">
  <defs>
    <linearGradient id="skin" x1="0" y1="0" x2="1" y2="1">
      <stop offset="0" stop-color="#b6e56e"/>
      <stop offset="1" stop-color="#4c7421"/>
    </linearGradient>
    <linearGradient id="hood" x1="0" y1="0" x2="1" y2="1">
      <stop offset="0" stop-color="#334155"/>
      <stop offset="1" stop-color="#0f172a"/>
    </linearGradient>
  </defs>
  <ellipse cx="128" cy="134" rx="96" ry="98" fill="#27381b"/>
  <path d="M38 168c0-55 40-96 96-96s96 41 96 96-44 96-96 96-96-40-96-96z" fill="url(#skin)"/>
  <path d="M58 156c8-34 32-56 70-56s62 22 70 56v34H58z" fill="url(#hood)" opacity="0.88"/>
  <path d="M42 128L14 106l30-14M214 128l28-20-30-16" stroke="#2f4916" stroke-width="10" fill="none" stroke-linecap="round"/>
  <ellipse cx="96" cy="122" rx="13" ry="15" fill="#0f172a"/>
  <ellipse cx="162" cy="122" rx="13" ry="15" fill="#0f172a"/>
  <circle cx="99" cy="118" r="3" fill="#fff"/>
  <circle cx="165" cy="118" r="3" fill="#fff"/>
  <path d="M92 186c21-17 51-17 72 0" stroke="#1f3411" stroke-width="8" fill="none" stroke-linecap="round"/>
  <path d="M113 187l-7 14M144 188l7 13" stroke="#fff" stroke-width="5" stroke-linecap="round"/>
  <path d="M42 167c0-53 34-88 76-94" stroke="#e7ffc2" stroke-width="8" fill="none" opacity="0.25"/>
</svg>
