<svg xmlns="http://www.w3.org/2000/svg" viewBox="0 0 256 256">
  <defs>
    <linearGradient id="skin" x1="0" y1="0" x2="1" y2="1">
      <stop offset="0" stop-color="#7bd6df"/>
      <stop offset="1" stop-color="#1e5f6a"/>
    </linearGradient>
    <linearGradient id="plate" x1="0" y1="0" x2="1" y2="1">
      <stop offset="0" stop-color="#94a3b8"/>
      <stop offset="1" stop-color="#1f2937"/>
    </linearGradient>
  </defs>
  <ellipse cx="128" cy="134" rx="96" ry="98" fill="#16373d"/>
  <path d="M38 170c0-57 40-98 96-98s96 41 96 98-44 94-96 94-96-37-96-94z" fill="url(#skin)"/>
  <path d="M60 162c9-31 34-52 74-52s65 21 74 52v28H60z" fill="url(#plate)" opacity="0.92"/>
  <path d="M78 104c13-20 33-30 58-30 24 0 45 10 58 30" stroke="#123f47" stroke-width="9" fill="none" stroke-linecap="round"/>
  <ellipse cx="95" cy="126" rx="13" ry="15" fill="#0f172a"/>
  <ellipse cx="169" cy="126" rx="13" ry="15" fill="#0f172a"/>
  <circle cx="98" cy="122" r="3" fill="#fff"/>
  <circle cx="172" cy="122" r="3" fill="#fff"/>
  <path d="M94 190h76" stroke="#0f2f35" stroke-width="10" stroke-linecap="round"/>
  <path d="M113 190l-8 14M146 190l8 14" stroke="#f8fafc" stroke-width="6" stroke-linecap="round"/>
  <path d="M43 171c0-53 35-88 78-94" stroke="#ccfbff" stroke-width="8" fill="none" opacity="0.22"/>
</svg>
