<svg xmlns="http://www.w3.org/2000/svg" viewBox="0 0 256 256">
  <defs>
    <radialGradient id="t_bg" cx="36%" cy="30%" r="76%">
      <stop offset="0" stop-color="#c5fbff"/>
      <stop offset="1" stop-color="#124752"/>
    </radialGradient>
    <linearGradient id="t_skin" x1="0" y1="0" x2="1" y2="1">
      <stop offset="0" stop-color="#7ad7df"/>
      <stop offset="1" stop-color="#1a5a65"/>
    </linearGradient>
    <linearGradient id="t_plate" x1="0" y1="0" x2="1" y2="1">
      <stop offset="0" stop-color="#b6c2d1"/>
      <stop offset="1" stop-color="#111827"/>
    </linearGradient>
  </defs>
  <ellipse cx="128" cy="132" rx="100" ry="100" fill="url(#t_bg)"/>
  <path d="M35 170c0-57 43-99 98-99 57 0 99 42 99 99 0 58-45 96-102 96-53 0-95-37-95-96z" fill="url(#t_skin)"/>
  <path d="M58 164c11-35 37-56 76-56 41 0 67 21 76 56v33H58z" fill="url(#t_plate)" opacity="0.9"/>
  <path d="M79 103c14-20 33-30 56-30 24 0 45 10 58 30" stroke="#0f3d45" stroke-width="9" fill="none" stroke-linecap="round"/>
  <path d="M90 148h75" stroke="#e2e8f0" stroke-width="6" stroke-linecap="round" opacity="0.55"/>
  <ellipse cx="93" cy="126" rx="13" ry="16" fill="#0b1220"/>
  <ellipse cx="170" cy="126" rx="13" ry="16" fill="#0b1220"/>
  <circle cx="97" cy="122" r="3" fill="#fff"/>
  <circle cx="174" cy="122" r="3" fill="#fff"/>
  <path d="M95 191h74" stroke="#0e2e34" stroke-width="10" stroke-linecap="round"/>
  <path d="M113 191l-8 13M145 191l8 13" stroke="#f8fafc" stroke-width="6" stroke-linecap="round"/>
</svg>
